<svg width="154" height="119" viewBox="0 0 154 119" fill="none" xmlns="http://www.w3.org/2000/svg">
<path d="M47.8913 69.56H57.0913V74H42.2913V46.08H47.8913V69.56ZM81.0106 54.72C81.0106 56.2133 80.6506 57.6133 79.9306 58.92C79.2373 60.2267 78.1306 61.28 76.6106 62.08C75.1173 62.88 73.224 63.28 70.9306 63.28H66.2506V74H60.6506V46.08H70.9306C73.0906 46.08 74.9306 46.4533 76.4506 47.2C77.9706 47.9467 79.104 48.9733 79.8506 50.28C80.624 51.5867 81.0106 53.0667 81.0106 54.72ZM70.6906 58.76C72.2373 58.76 73.384 58.4133 74.1306 57.72C74.8773 57 75.2506 56 75.2506 54.72C75.2506 52 73.7306 50.64 70.6906 50.64H66.2506V58.76H70.6906ZM100.747 74L90.5866 61.56V74H84.9866V46.08H90.5866V58.6L100.747 46.08H107.507L95.9866 59.92L107.827 74H100.747Z" fill="white"/>
</svg>
