<svg width="550" height="119" viewBox="0 0 500 119" fill="none" xmlns="http://www.w3.org/2000/svg">
<path d="M42.52 46.08C45.4533 46.08 48.0267 46.6533 50.24 47.8C52.48 48.9467 54.2 50.5867 55.4 52.72C56.6267 54.8267 57.24 57.28 57.24 60.08C57.24 62.88 56.6267 65.3333 55.4 67.44C54.2 69.52 52.48 71.1333 50.24 72.28C48.0267 73.4267 45.4533 74 42.52 74H32.76V46.08H42.52ZM42.32 69.24C45.2533 69.24 47.52 68.44 49.12 66.84C50.72 65.24 51.52 62.9867 51.52 60.08C51.52 57.1733 50.72 54.9067 49.12 53.28C47.52 51.6267 45.2533 50.8 42.32 50.8H38.36V69.24H42.32ZM59.9919 62.84C59.9919 60.6 60.4319 58.6133 61.3119 56.88C62.2185 55.1467 63.4319 53.8133 64.9519 52.88C66.4985 51.9467 68.2185 51.48 70.1119 51.48C71.7652 51.48 73.2052 51.8133 74.4319 52.48C75.6852 53.1467 76.6852 53.9867 77.4319 55V51.84H83.0719V74H77.4319V70.76C76.7119 71.8 75.7119 72.6667 74.4319 73.36C73.1785 74.0267 71.7252 74.36 70.0719 74.36C68.2052 74.36 66.4985 73.88 64.9519 72.92C63.4319 71.96 62.2185 70.6133 61.3119 68.88C60.4319 67.12 59.9919 65.1067 59.9919 62.84ZM77.4319 62.92C77.4319 61.56 77.1652 60.4 76.6319 59.44C76.0985 58.4533 75.3785 57.7067 74.4719 57.2C73.5652 56.6667 72.5919 56.4 71.5519 56.4C70.5119 56.4 69.5519 56.6533 68.6719 57.16C67.7919 57.6667 67.0719 58.4133 66.5119 59.4C65.9785 60.36 65.7119 61.5067 65.7119 62.84C65.7119 64.1733 65.9785 65.3467 66.5119 66.36C67.0719 67.3467 67.7919 68.1067 68.6719 68.64C69.5785 69.1733 70.5385 69.44 71.5519 69.44C72.5919 69.44 73.5652 69.1867 74.4719 68.68C75.3785 68.1467 76.0985 67.4 76.6319 66.44C77.1652 65.4533 77.4319 64.28 77.4319 62.92ZM97.0213 74.36C95.2079 74.36 93.5813 74.04 92.1413 73.4C90.7013 72.7333 89.5546 71.84 88.7013 70.72C87.8746 69.6 87.4213 68.36 87.3413 67H92.9813C93.0879 67.8533 93.5013 68.56 94.2213 69.12C94.9679 69.68 95.8879 69.96 96.9813 69.96C98.0479 69.96 98.8746 69.7467 99.4613 69.32C100.075 68.8933 100.381 68.3467 100.381 67.68C100.381 66.96 100.008 66.4267 99.2613 66.08C98.5413 65.7067 97.3813 65.3067 95.7812 64.88C94.1279 64.48 92.7679 64.0667 91.7013 63.64C90.6613 63.2133 89.7546 62.56 88.9813 61.68C88.2346 60.8 87.8613 59.6133 87.8613 58.12C87.8613 56.8933 88.2079 55.7733 88.9013 54.76C89.6213 53.7467 90.6346 52.9467 91.9413 52.36C93.2746 51.7733 94.8346 51.48 96.6213 51.48C99.2613 51.48 101.368 52.1467 102.941 53.48C104.515 54.7867 105.381 56.56 105.541 58.8H100.181C100.101 57.92 99.7279 57.2267 99.0613 56.72C98.4213 56.1867 97.5546 55.92 96.4613 55.92C95.4479 55.92 94.6613 56.1067 94.1013 56.48C93.5679 56.8533 93.3013 57.3733 93.3013 58.04C93.3013 58.7867 93.6746 59.36 94.4213 59.76C95.1679 60.1333 96.3279 60.52 97.9013 60.92C99.5013 61.32 100.821 61.7333 101.861 62.16C102.901 62.5867 103.795 63.2533 104.541 64.16C105.315 65.04 105.715 66.2133 105.741 67.68C105.741 68.96 105.381 70.1067 104.661 71.12C103.968 72.1333 102.955 72.9333 101.621 73.52C100.315 74.08 98.7813 74.36 97.0213 74.36ZM122.818 51.52C124.498 51.52 125.991 51.8933 127.298 52.64C128.605 53.36 129.618 54.44 130.338 55.88C131.085 57.2933 131.458 59 131.458 61V74H125.858V61.76C125.858 60 125.418 58.6533 124.538 57.72C123.658 56.76 122.458 56.28 120.938 56.28C119.391 56.28 118.165 56.76 117.258 57.72C116.378 58.6533 115.938 60 115.938 61.76V74H110.338V44.4H115.938V54.6C116.658 53.64 117.618 52.8933 118.818 52.36C120.018 51.8 121.351 51.52 122.818 51.52ZM142.383 55.08C143.103 54.0133 144.09 53.1467 145.343 52.48C146.623 51.8133 148.077 51.48 149.703 51.48C151.597 51.48 153.303 51.9467 154.823 52.88C156.37 53.8133 157.583 55.1467 158.463 56.88C159.37 58.5867 159.823 60.5733 159.823 62.84C159.823 65.1067 159.37 67.12 158.463 68.88C157.583 70.6133 156.37 71.96 154.823 72.92C153.303 73.88 151.597 74.36 149.703 74.36C148.05 74.36 146.597 74.04 145.343 73.4C144.117 72.7333 143.13 71.88 142.383 70.84V74H136.783V44.4H142.383V55.08ZM154.103 62.84C154.103 61.5067 153.823 60.36 153.263 59.4C152.73 58.4133 152.01 57.6667 151.103 57.16C150.223 56.6533 149.263 56.4 148.223 56.4C147.21 56.4 146.25 56.6667 145.343 57.2C144.463 57.7067 143.743 58.4533 143.183 59.44C142.65 60.4267 142.383 61.5867 142.383 62.92C142.383 64.2533 142.65 65.4133 143.183 66.4C143.743 67.3867 144.463 68.1467 145.343 68.68C146.25 69.1867 147.21 69.44 148.223 69.44C149.263 69.44 150.223 69.1733 151.103 68.64C152.01 68.1067 152.73 67.3467 153.263 66.36C153.823 65.3733 154.103 64.2 154.103 62.84ZM173.733 74.36C171.599 74.36 169.679 73.8933 167.973 72.96C166.266 72 164.919 70.6533 163.933 68.92C162.973 67.1867 162.493 65.1867 162.493 62.92C162.493 60.6533 162.986 58.6533 163.973 56.92C164.986 55.1867 166.359 53.8533 168.093 52.92C169.826 51.96 171.759 51.48 173.893 51.48C176.026 51.48 177.959 51.96 179.693 52.92C181.426 53.8533 182.786 55.1867 183.773 56.92C184.786 58.6533 185.293 60.6533 185.293 62.92C185.293 65.1867 184.773 67.1867 183.733 68.92C182.719 70.6533 181.333 72 179.573 72.96C177.839 73.8933 175.893 74.36 173.733 74.36ZM173.733 69.48C174.746 69.48 175.693 69.24 176.573 68.76C177.479 68.2533 178.199 67.5067 178.733 66.52C179.266 65.5333 179.533 64.3333 179.533 62.92C179.533 60.8133 178.973 59.2 177.853 58.08C176.759 56.9333 175.413 56.36 173.813 56.36C172.213 56.36 170.866 56.9333 169.773 58.08C168.706 59.2 168.173 60.8133 168.173 62.92C168.173 65.0267 168.693 66.6533 169.733 67.8C170.799 68.92 172.133 69.48 173.733 69.48ZM187.961 62.84C187.961 60.6 188.401 58.6133 189.281 56.88C190.187 55.1467 191.401 53.8133 192.921 52.88C194.467 51.9467 196.187 51.48 198.081 51.48C199.734 51.48 201.174 51.8133 202.401 52.48C203.654 53.1467 204.654 53.9867 205.401 55V51.84H211.041V74H205.401V70.76C204.681 71.8 203.681 72.6667 202.401 73.36C201.147 74.0267 199.694 74.36 198.041 74.36C196.174 74.36 194.467 73.88 192.921 72.92C191.401 71.96 190.187 70.6133 189.281 68.88C188.401 67.12 187.961 65.1067 187.961 62.84ZM205.401 62.92C205.401 61.56 205.134 60.4 204.601 59.44C204.067 58.4533 203.347 57.7067 202.441 57.2C201.534 56.6667 200.561 56.4 199.521 56.4C198.481 56.4 197.521 56.6533 196.641 57.16C195.761 57.6667 195.041 58.4133 194.481 59.4C193.947 60.36 193.681 61.5067 193.681 62.84C193.681 64.1733 193.947 65.3467 194.481 66.36C195.041 67.3467 195.761 68.1067 196.641 68.64C197.547 69.1733 198.507 69.44 199.521 69.44C200.561 69.44 201.534 69.1867 202.441 68.68C203.347 68.1467 204.067 67.4 204.601 66.44C205.134 65.4533 205.401 64.28 205.401 62.92ZM222.11 55.28C222.83 54.1067 223.763 53.1867 224.91 52.52C226.083 51.8533 227.417 51.52 228.91 51.52V57.4H227.43C225.67 57.4 224.337 57.8133 223.43 58.64C222.55 59.4667 222.11 60.9067 222.11 62.96V74H216.51V51.84H222.11V55.28ZM231.242 62.84C231.242 60.6 231.682 58.6133 232.562 56.88C233.469 55.1467 234.695 53.8133 236.242 52.88C237.789 51.9467 239.509 51.48 241.402 51.48C242.842 51.48 244.215 51.8 245.522 52.44C246.829 53.0533 247.869 53.88 248.642 54.92V44.4H254.322V74H248.642V70.72C247.949 71.8133 246.975 72.6933 245.722 73.36C244.469 74.0267 243.015 74.36 241.362 74.36C239.495 74.36 237.789 73.88 236.242 72.92C234.695 71.96 233.469 70.6133 232.562 68.88C231.682 67.12 231.242 65.1067 231.242 62.84ZM248.682 62.92C248.682 61.56 248.415 60.4 247.882 59.44C247.349 58.4533 246.629 57.7067 245.722 57.2C244.815 56.6667 243.842 56.4 242.802 56.4C241.762 56.4 240.802 56.6533 239.922 57.16C239.042 57.6667 238.322 58.4133 237.762 59.4C237.229 60.36 236.962 61.5067 236.962 62.84C236.962 64.1733 237.229 65.3467 237.762 66.36C238.322 67.3467 239.042 68.1067 239.922 68.64C240.829 69.1733 241.789 69.44 242.802 69.44C243.842 69.44 244.815 69.1867 245.722 68.68C246.629 68.1467 247.349 67.4 247.882 66.44C248.415 65.4533 248.682 64.28 248.682 62.92ZM275.563 78.84H269.923V41.68H275.563V78.84ZM296.798 69.56H305.998V74H291.198V46.08H296.798V69.56ZM329.917 54.72C329.917 56.2133 329.557 57.6133 328.837 58.92C328.144 60.2267 327.037 61.28 325.517 62.08C324.024 62.88 322.13 63.28 319.837 63.28H315.157V74H309.557V46.08H319.837C321.997 46.08 323.837 46.4533 325.357 47.2C326.877 47.9467 328.01 48.9733 328.757 50.28C329.53 51.5867 329.917 53.0667 329.917 54.72ZM319.597 58.76C321.144 58.76 322.29 58.4133 323.037 57.72C323.784 57 324.157 56 324.157 54.72C324.157 52 322.637 50.64 319.597 50.64H315.157V58.76H319.597ZM349.653 74L339.493 61.56V74H333.893V46.08H339.493V58.6L349.653 46.08H356.413L344.893 59.92L356.733 74H349.653Z" fill="white"/>
</svg>
